<?xml version="1.0" encoding="UTF-8" standalone="no"?>
<svg
   xmlns:dc="http://purl.org/dc/elements/1.1/"
   xmlns:cc="http://creativecommons.org/ns#"
   xmlns:rdf="http://www.w3.org/1999/02/22-rdf-syntax-ns#"
   xmlns:svg="http://www.w3.org/2000/svg"
   xmlns="http://www.w3.org/2000/svg"
   xmlns:sodipodi="http://sodipodi.sourceforge.net/DTD/sodipodi-0.dtd"
   xmlns:inkscape="http://www.inkscape.org/namespaces/inkscape"
   viewBox="0 0 300 329"
   preserveAspectRatio="xMidYMid meet"
   version="1.1"
   id="svg38"
   sodipodi:docname="house.svg"
   inkscape:version="0.92.3 (2405546, 2018-03-11)">
  <metadata
     id="metadata44">
    <rdf:RDF>
      <cc:Work
         rdf:about="">
        <dc:format>image/svg+xml</dc:format>
        <dc:type
           rdf:resource="http://purl.org/dc/dcmitype/StillImage" />
      </cc:Work>
    </rdf:RDF>
  </metadata>
  <defs
     id="defs42" />
  <sodipodi:namedview
     pagecolor="#ffffff"
     bordercolor="#666666"
     borderopacity="1"
     objecttolerance="10"
     gridtolerance="10"
     guidetolerance="10"
     inkscape:pageopacity="0"
     inkscape:pageshadow="2"
     inkscape:window-width="1920"
     inkscape:window-height="1017"
     id="namedview40"
     showgrid="false"
     inkscape:zoom="2.8693009"
     inkscape:cx="214.53516"
     inkscape:cy="173.02022"
     inkscape:window-x="1672"
     inkscape:window-y="-8"
     inkscape:window-maximized="1"
     inkscape:current-layer="svg38" />
  <title
     id="title2">Responsive Icons</title>
  <style
     id="style4">
	svg {
	background-size: 100% 100%;
	background-repeat: no-repeat;
}

@media (min-width: 0px) {
	.small, .medium, .large, .largest { display:none; }
	.smallest {display:block;}
	}

@media (min-width: 400px) {
	.smallest {display: none;}
	.medium {display:block;}
}

@media (min-width: 600px) {
	.medium {display: none;}
	.large {display:block;}
}

@media (min-width: 800px) {
	.large {display: none;}
	.largest {display:block;}
}


}

</style>
  <polygon
     class="smallest"
     fill="#E55C3C"
     points="162.5,166.5 162.5,148.5 150.5,136.5 138.5,148.5 138.5,166.5 "
     id="polygon6" />
  <polygon
     class="small"
     fill="#E55C3C"
     points="162.5,166.5 162.5,148.5 150.5,136.5 138.5,148.5 138.5,166.5 "
     id="polygon8"
     style="fill:#ff7f2a" />
  <rect
     x="223.059"
     y="114.927"
     fill="#E55C3C"
     width="63.441"
     height="146.573"
     class="largest"
     id="rect24"
     style="fill:#ff9955" />
  <polyline
     class="largest"
     fill="#B8492E"
     points="164.5,59.5 254.369,59.5 298.798,122.5 164.5,122.5 164.5,59.5 "
     id="polyline26"
     style="fill:#c87137" />
  <polygon
     class="largest"
     fill="#E55C3C"
     points="74.469,70.021 40.678,103.812 40.678,57.5 35.5,57.5 35.5,46.5 79.5,46.5 79.5,56.447   74.469,56.447 "
     id="polygon28"
     style="fill:#deaa87" />
  <polygon
     class="largest"
     fill="#B8492E"
     points="74.279,59.5 74.279,71.206 40.488,104.997 40.488,93.333 "
     id="polygon30"
     style="fill:#d38d5f" />
  <path
     class="largest"
     fill="#E55C3C"
     d="M95.475,204.613V275.5h57.017v-70.887H95.475z M115.427,246.568c-1.462,0-3.108-1.646-3.108-3.107  c0-1.463,1.646-3.107,3.108-3.107c1.463,0,3.107,1.646,3.107,3.107C118.535,244.922,116.89,246.568,115.427,246.568z"
     id="path32"
     style="fill:#ff9955" />
  <path
     class="largest"
     d="M-0.5,144.5h17v137h78v-6h6v-70h48v70h6v6h80V143.652l0.798,0.848h17.503L125.158,17.586L-0.5,144.5z   M57.5,204.5v-17h16v17H57.5z M73.5,209.5v16h-16v-16H73.5z M35.5,204.5v-17h16v17H35.5z M51.5,209.5v16h-16v-16H51.5z M77.5,234.5  h-46v-5h46V234.5z M122.5,134.5h-15v-20h15V134.5z M122.5,109.5h-15v-6.617c0-8.207,8-15.021,15-16.463V109.5z M142.5,134.5h-15v-20  h15V134.5z M142.5,109.5h-15V86.258c9,0.996,15,8.053,15,16.625V109.5z M219.5,234.5h-46v-5h46V234.5z M193.5,209.5v16h-16v-16  H193.5z M177.5,204.5v-17h16v17H177.5z M215.5,209.5v16h-16v-16H215.5z M199.5,204.5v-17h16v17H199.5z"
     id="path34"
     style="fill:#ffb380"
     fill="#E98158" />
  <polygon
     class="largest"
     fill="#B8492E"
     points="141.5,275.5 141.5,211.5 100.5,211.5 100.5,205.5 148.5,205.5 148.5,275.5 "
     id="polygon36"
     style="fill:#ff7f2a" />
</svg>
