<?xml version="1.0" encoding="UTF-8" standalone="no"?>
<svg
   xmlns:dc="http://purl.org/dc/elements/1.1/"
   xmlns:cc="http://creativecommons.org/ns#"
   xmlns:rdf="http://www.w3.org/1999/02/22-rdf-syntax-ns#"
   xmlns:svg="http://www.w3.org/2000/svg"
   xmlns="http://www.w3.org/2000/svg"
   xmlns:sodipodi="http://sodipodi.sourceforge.net/DTD/sodipodi-0.dtd"
   xmlns:inkscape="http://www.inkscape.org/namespaces/inkscape"
   version="1.1"
   id="downloadSvg"
   x="0px"
   y="0px"
   width="203.44661"
   height="178.68546"
   viewBox="0 0 476.82798 418.79403"
   enable-background="new 0 0 1200 1200"
   xml:space="preserve"
   sodipodi:docname="icon.svg"
   inkscape:version="0.92.3 (2405546, 2018-03-11)"><metadata
   id="metadata149"><rdf:RDF><cc:Work
       rdf:about=""><dc:format>image/svg+xml</dc:format><dc:type
         rdf:resource="http://purl.org/dc/dcmitype/StillImage" /><dc:title></dc:title><cc:license
         rdf:resource="" /></cc:Work></rdf:RDF></metadata><defs
   id="defs147" /><sodipodi:namedview
   pagecolor="#ffffff"
   bordercolor="#666666"
   borderopacity="1"
   objecttolerance="10"
   gridtolerance="10"
   guidetolerance="10"
   inkscape:pageopacity="0"
   inkscape:pageshadow="2"
   inkscape:window-width="1920"
   inkscape:window-height="1017"
   id="namedview145"
   showgrid="false"
   inkscape:object-paths="false"
   inkscape:snap-nodes="true"
   inkscape:zoom="1.84375"
   inkscape:cx="110.38617"
   inkscape:cy="72.366262"
   inkscape:window-x="1672"
   inkscape:window-y="-8"
   inkscape:window-maximized="1"
   inkscape:current-layer="g136" />
<g
   id="g142"
   transform="translate(-299.08491,-10.68541)">
	<g
   id="g139">
		<g
   id="Capa_2"
   transform="translate(-48.305085,-188.13559)">
			<g
   id="g136">
				
				
				
				<g
   id="g124">
					<g
   id="g28">
						<g
   id="g24">
							<rect
   x="388.29099"
   y="413.25"
   width="395.021"
   height="204.36501"
   id="rect16"
   style="fill:#dc9a5f" />
							<g
   id="g22">
								<polygon
   points="371.403,413.25 585.827,198.821 824.218,413.25 "
   id="polygon18"
   style="fill:#444745" />
								<polygon
   points="347.39,413.25 481.345,279.295 630.268,413.25 "
   id="polygon20"
   style="fill:#5b5f5f" />
							</g>
						</g>
						<rect
   x="662.388"
   y="254.26401"
   width="29.051001"
   height="45.957001"
   id="rect26"
   style="fill:#444745" />
					</g>
					
					
					<g
   id="g60">
						<rect
   x="446.67499"
   y="478.048"
   width="80.552002"
   height="134.097"
   id="rect34"
   style="fill:#ffffff" />
						<rect
   x="454.87701"
   y="489.98099"
   width="64.139999"
   height="122.162"
   id="rect36"
   style="fill:#9e896f" />
						<g
   id="g54">
							<g
   id="g40">
								<rect
   x="507.50201"
   y="490.21799"
   width="11.553"
   height="127.271"
   id="rect38"
   style="fill:#796a55" />
							</g>
							<g
   id="g44">
								<rect
   x="454.87701"
   y="489.98099"
   width="64.178001"
   height="8.8629999"
   id="rect42"
   style="fill:#796a55" />
							</g>
							<g
   id="g48">
								<rect
   x="454.87701"
   y="518.09998"
   width="64.178001"
   height="5.9050002"
   id="rect46"
   style="fill:#796a55" />
							</g>
							<g
   id="g52">
								<rect
   x="454.87701"
   y="567.10602"
   width="64.178001"
   height="5.902"
   id="rect50"
   style="fill:#796a55" />
							</g>
						</g>
						<rect
   x="453.26199"
   y="512.76898"
   width="68.597"
   height="5.3309999"
   id="rect56"
   style="fill:#ffffff" />
						<rect
   x="453.26199"
   y="561.77502"
   width="68.597"
   height="5.3309999"
   id="rect58"
   style="fill:#ffffff" />
					</g>
					<rect
   x="437.543"
   y="612.28802"
   width="98.813004"
   height="5.3270001"
   id="rect62"
   style="fill:#7e8081" />
					<g
   id="g84">
						<rect
   x="590.36102"
   y="456.62701"
   width="158.62"
   height="116.029"
   id="rect64"
   style="fill:#ffffff" />
						<rect
   x="597.60602"
   y="464.759"
   width="144.136"
   height="99.764999"
   id="rect66"
   style="fill:#7d9ea5" />
						<rect
   x="735.08002"
   y="464.759"
   width="6.6609998"
   height="99.764999"
   id="rect68"
   style="fill:#627e82" />
						<rect
   x="597.60602"
   y="464.759"
   width="144.136"
   height="8.3900003"
   id="rect70"
   style="fill:#627e82" />
						<rect
   x="597.60602"
   y="517.39801"
   width="144.136"
   height="8.3889999"
   id="rect72"
   style="fill:#627e82" />
						<rect
   x="704.27197"
   y="464.759"
   width="6.6630001"
   height="99.764999"
   id="rect74"
   style="fill:#627e82" />
						<rect
   x="674.86102"
   y="464.759"
   width="6.6620002"
   height="99.764999"
   id="rect76"
   style="fill:#627e82" />
						<rect
   x="645.84698"
   y="464.759"
   width="6.6589999"
   height="99.764999"
   id="rect78"
   style="fill:#627e82" />
						<rect
   x="616.73102"
   y="464.759"
   width="6.658"
   height="99.764999"
   id="rect80"
   style="fill:#627e82" />
						<polygon
   points="681.531,462.465 681.531,512.118 657.808,512.118 657.808,462.465 652.48,462.465 652.48,512.118 628.763,512.118 628.763,462.465 623.433,462.465 623.433,512.118 595.103,512.118 595.103,517.164 623.433,517.164 623.433,568.219 628.763,568.219 628.763,517.164 652.48,517.164 652.48,568.219 657.808,568.219 657.808,517.164 681.531,517.164 681.531,568.219 686.865,568.219 686.865,517.164 710.58,517.164 710.58,568.219 715.909,568.219 715.909,517.164 747.162,517.164 747.162,512.118 715.909,512.118 715.909,462.465 710.58,462.465 710.58,512.118 686.865,512.118 686.865,462.465 "
   id="polygon82"
   style="fill:#ffffff" />
					</g>
					<rect
   x="388.29099"
   y="413.25"
   width="395.021"
   height="23.221001"
   id="rect86"
   style="fill:#af754a;fill-opacity:1" />
					
					
					
					<polygon
   points="630.268,413.25 674.861,413.25 507.408,277.241 493.982,290.666 "
   id="polygon122"
   style="fill:#3e413e" />
				</g>
				
			</g>
		</g>
	</g>
	<g
   id="Capa_1_1_">
	</g>
</g>
</svg>